<svg width="67" height="25" viewBox="0 0 67 25" fill="none" xmlns="http://www.w3.org/2000/svg">
<mask id="path-1-outside-1_414_589" maskUnits="userSpaceOnUse" x="0" y="-1" width="68" height="26" fill="black">
<rect fill="white" y="-1" width="68" height="26"/>
<path d="M0.728 10.659C2.807 7.284 4.589 4.773 6.29 2.532C4.562 2.532 3.671 2.613 1.565 3.126C1.43 3.153 1.322 3.18 1.214 3.18C0.998 3.18 0.674 3.126 0.674 2.721C0.674 2.424 0.917 2.208 1.376 2.073C2.969 1.668 4.616 1.479 6.236 1.479C6.857 1.479 7.1 1.614 7.289 2.073C7.343 2.235 7.37 2.397 7.37 2.532C7.37 2.748 7.289 3.018 6.83 3.639C6.263 4.395 5.723 5.07 5.183 5.826C6.047 7.473 6.668 8.823 7.208 10.146C7.289 10.335 7.316 10.47 7.316 10.605C7.316 10.74 7.208 11.01 6.857 11.01C6.614 11.01 6.452 10.875 6.209 10.362C5.723 9.309 5.156 8.148 4.481 6.825C3.725 7.932 2.861 9.282 1.7 11.145C1.484 11.496 1.241 11.685 0.971 11.685C0.62 11.685 0.512 11.334 0.512 11.199C0.512 11.064 0.593 10.875 0.728 10.659ZM10.286 20.19C10.421 17.76 10.502 16.464 10.502 13.872H10.016C8.612 13.872 7.289 14.007 5.156 14.358C5.021 14.385 4.913 14.385 4.805 14.385C4.4 14.385 4.211 14.223 4.211 13.899C4.211 13.548 4.454 13.332 4.913 13.251C6.641 12.9 8.612 12.711 10.34 12.711C11.231 12.711 11.636 12.981 11.636 13.818C11.636 16.68 11.528 17.787 11.393 20.136C11.339 20.811 11.123 21.162 10.745 21.162C10.448 21.162 10.286 20.919 10.286 20.433V20.19ZM10.88 1.263C10.907 0.560999 11.069 0.209999 11.42 0.209999C11.717 0.209999 11.96 0.534 11.96 1.101C11.879 5.124 11.852 8.742 11.771 10.875C11.744 11.631 11.582 12.009 11.123 12.009C10.772 12.009 10.61 11.685 10.61 11.01V10.902C10.691 8.85 10.745 4.881 10.88 1.263ZM21.0744 21.999C24.1254 21.999 29.0934 21.324 31.7124 20.676C31.9014 20.622 32.0904 20.595 32.2254 20.595C32.5764 20.595 32.7384 20.757 32.7384 21.081C32.7384 21.378 32.6304 21.486 32.0094 21.675C29.6064 22.404 23.7474 23.133 21.4254 23.133C20.5884 23.133 20.1564 23.025 20.0214 22.512C19.6704 21.162 19.3464 18.3 19.3464 17.247C19.3464 16.734 19.5354 16.491 19.8864 16.491C20.2914 16.491 20.3994 16.788 20.4264 17.22C20.5074 18.732 20.6694 20.676 21.0744 21.999ZM24.9354 14.736L16.3764 15.654H16.1604C15.7014 15.654 15.4584 15.492 15.4584 15.141C15.4584 14.79 15.7284 14.574 16.2414 14.52L18.8874 14.25C18.8064 12.036 18.7254 9.309 18.7254 7.797C18.7254 7.149 18.8874 6.825 19.2384 6.825C19.5624 6.825 19.7514 7.095 19.7784 7.635C19.8594 9.039 19.9404 11.712 20.0214 14.115L24.8274 13.602H25.0164C25.4754 13.602 25.7184 13.764 25.7184 14.115C25.7184 14.466 25.4484 14.682 24.9354 14.736ZM22.9644 10.47C22.9644 7.419 22.8834 4.746 22.5594 2.37C20.8314 2.37 18.3204 2.586 16.3224 3.099C16.1334 3.153 15.9444 3.18 15.8094 3.18C15.4584 3.18 15.2964 3.018 15.2964 2.694C15.2964 2.37 15.4854 2.154 15.8904 2.046C17.7534 1.614 20.5344 1.263 22.1814 1.263H22.3974C23.0724 1.263 23.5584 1.317 23.6664 2.1C24.0984 4.935 24.0444 7.473 24.0444 10.2C24.0444 10.875 23.8824 11.334 23.4774 11.334C23.1264 11.334 22.9644 11.037 22.9644 10.47ZM28.2024 4.071V3.828C28.2024 3.288 28.3644 3.018 28.6884 3.018C28.9854 3.018 29.1474 3.207 29.2284 3.747C29.3094 4.476 29.4444 5.988 29.5254 7.608L32.4954 7.284C32.6034 7.257 32.6844 7.257 32.7654 7.257C33.1974 7.257 33.4134 7.446 33.4134 7.824C33.4134 8.175 33.1434 8.364 32.6304 8.418L29.5794 8.769C29.6604 10.821 29.7414 12.873 29.7414 13.845C29.7414 14.547 29.5524 14.898 29.1474 14.898C28.6884 14.898 28.5264 14.601 28.5264 13.845C28.5264 11.469 28.3374 5.718 28.2024 4.071ZM35.053 7.311C35.053 3.99 36.781 1.533 39.535 1.398C39.562 1.182 39.67 1.074 39.913 1.074C40.21 1.074 40.48 1.344 40.75 1.911C41.263 2.991 41.722 5.664 41.722 7.176C41.722 10.848 40.75 12.387 38.59 12.387C36.511 12.387 35.053 10.335 35.053 7.311ZM39.481 18.03C40.993 17.706 46.987 17.355 48.283 17.247C48.31 16.977 48.31 16.707 48.31 16.464C48.31 15.843 48.256 15.195 48.013 14.034C46.366 14.034 41.074 14.655 39.13 14.871C39.022 14.898 38.914 14.898 38.833 14.898C38.401 14.898 38.185 14.736 38.185 14.385C38.185 14.061 38.428 13.872 38.887 13.818C40.912 13.521 45.529 13.116 47.851 12.981H48.121C48.742 12.981 49.039 13.143 49.147 13.764C49.363 14.925 49.471 15.951 49.471 17.166C49.471 17.895 49.147 18.3 48.31 18.3C47.23 18.3 41.425 18.894 39.832 19.11C39.913 20.514 39.94 21.432 40.453 23.052H40.642C41.965 23.052 48.121 21.837 49.633 21.405C49.822 21.351 49.957 21.324 50.092 21.324C50.443 21.324 50.605 21.486 50.605 21.783C50.605 22.107 50.416 22.242 49.795 22.377C47.932 22.809 42.262 24.132 40.291 24.132C39.724 24.132 39.508 23.97 39.319 23.403C38.914 22.08 38.617 20.433 38.617 19.272C38.617 18.516 38.644 18.165 39.481 18.03ZM40.507 7.176C40.507 5.961 40.21 3.396 39.778 2.397C37.159 2.478 36.214 4.8 36.214 7.257C36.214 9.633 37.267 11.361 38.617 11.361C39.778 11.361 40.507 10.443 40.507 7.176ZM46.609 2.127C46.582 1.992 46.582 1.884 46.582 1.776C46.582 1.317 46.744 1.074 47.095 1.074C47.392 1.074 47.554 1.263 47.635 1.803C47.851 3.612 48.094 7.77 48.094 9.714C48.094 10.443 47.932 10.848 47.5 10.848C47.041 10.848 46.96 10.578 46.96 9.822C46.96 7.446 46.825 3.774 46.609 2.127ZM52.7412 3.018C54.3612 3.018 58.3572 3.072 59.9772 3.288C60.7332 3.369 61.0032 3.558 61.0032 4.341C60.9222 8.364 60.8682 13.17 60.7332 16.059C60.7062 16.626 60.5172 16.923 60.1662 16.923C59.7882 16.923 59.5992 16.599 59.5992 15.978C59.5992 12.927 59.7342 8.148 59.8152 4.449C57.0342 4.233 55.6572 4.233 52.6872 4.152C52.1742 4.125 51.9042 3.936 51.9042 3.585C51.9042 3.207 52.1742 3.018 52.7412 3.018ZM66.7002 17.166C66.7272 17.328 66.7272 17.463 66.7272 17.571C66.7272 17.895 66.6462 18.165 66.2952 18.192H66.2412C65.9982 18.192 65.7552 18.057 65.6472 17.49C64.9992 13.845 64.1622 4.368 63.9462 1.479V1.263C63.9462 0.642 64.1622 0.344999 64.5672 0.317999H64.6212C64.9722 0.317999 65.1342 0.614999 65.2152 1.371C65.4312 4.098 66.1602 13.737 66.7002 17.166Z"/>
</mask>
<path d="M0.728 10.659C2.807 7.284 4.589 4.773 6.29 2.532C4.562 2.532 3.671 2.613 1.565 3.126C1.43 3.153 1.322 3.18 1.214 3.18C0.998 3.18 0.674 3.126 0.674 2.721C0.674 2.424 0.917 2.208 1.376 2.073C2.969 1.668 4.616 1.479 6.236 1.479C6.857 1.479 7.1 1.614 7.289 2.073C7.343 2.235 7.37 2.397 7.37 2.532C7.37 2.748 7.289 3.018 6.83 3.639C6.263 4.395 5.723 5.07 5.183 5.826C6.047 7.473 6.668 8.823 7.208 10.146C7.289 10.335 7.316 10.47 7.316 10.605C7.316 10.74 7.208 11.01 6.857 11.01C6.614 11.01 6.452 10.875 6.209 10.362C5.723 9.309 5.156 8.148 4.481 6.825C3.725 7.932 2.861 9.282 1.7 11.145C1.484 11.496 1.241 11.685 0.971 11.685C0.62 11.685 0.512 11.334 0.512 11.199C0.512 11.064 0.593 10.875 0.728 10.659ZM10.286 20.19C10.421 17.76 10.502 16.464 10.502 13.872H10.016C8.612 13.872 7.289 14.007 5.156 14.358C5.021 14.385 4.913 14.385 4.805 14.385C4.4 14.385 4.211 14.223 4.211 13.899C4.211 13.548 4.454 13.332 4.913 13.251C6.641 12.9 8.612 12.711 10.34 12.711C11.231 12.711 11.636 12.981 11.636 13.818C11.636 16.68 11.528 17.787 11.393 20.136C11.339 20.811 11.123 21.162 10.745 21.162C10.448 21.162 10.286 20.919 10.286 20.433V20.19ZM10.88 1.263C10.907 0.560999 11.069 0.209999 11.42 0.209999C11.717 0.209999 11.96 0.534 11.96 1.101C11.879 5.124 11.852 8.742 11.771 10.875C11.744 11.631 11.582 12.009 11.123 12.009C10.772 12.009 10.61 11.685 10.61 11.01V10.902C10.691 8.85 10.745 4.881 10.88 1.263ZM21.0744 21.999C24.1254 21.999 29.0934 21.324 31.7124 20.676C31.9014 20.622 32.0904 20.595 32.2254 20.595C32.5764 20.595 32.7384 20.757 32.7384 21.081C32.7384 21.378 32.6304 21.486 32.0094 21.675C29.6064 22.404 23.7474 23.133 21.4254 23.133C20.5884 23.133 20.1564 23.025 20.0214 22.512C19.6704 21.162 19.3464 18.3 19.3464 17.247C19.3464 16.734 19.5354 16.491 19.8864 16.491C20.2914 16.491 20.3994 16.788 20.4264 17.22C20.5074 18.732 20.6694 20.676 21.0744 21.999ZM24.9354 14.736L16.3764 15.654H16.1604C15.7014 15.654 15.4584 15.492 15.4584 15.141C15.4584 14.79 15.7284 14.574 16.2414 14.52L18.8874 14.25C18.8064 12.036 18.7254 9.309 18.7254 7.797C18.7254 7.149 18.8874 6.825 19.2384 6.825C19.5624 6.825 19.7514 7.095 19.7784 7.635C19.8594 9.039 19.9404 11.712 20.0214 14.115L24.8274 13.602H25.0164C25.4754 13.602 25.7184 13.764 25.7184 14.115C25.7184 14.466 25.4484 14.682 24.9354 14.736ZM22.9644 10.47C22.9644 7.419 22.8834 4.746 22.5594 2.37C20.8314 2.37 18.3204 2.586 16.3224 3.099C16.1334 3.153 15.9444 3.18 15.8094 3.18C15.4584 3.18 15.2964 3.018 15.2964 2.694C15.2964 2.37 15.4854 2.154 15.8904 2.046C17.7534 1.614 20.5344 1.263 22.1814 1.263H22.3974C23.0724 1.263 23.5584 1.317 23.6664 2.1C24.0984 4.935 24.0444 7.473 24.0444 10.2C24.0444 10.875 23.8824 11.334 23.4774 11.334C23.1264 11.334 22.9644 11.037 22.9644 10.47ZM28.2024 4.071V3.828C28.2024 3.288 28.3644 3.018 28.6884 3.018C28.9854 3.018 29.1474 3.207 29.2284 3.747C29.3094 4.476 29.4444 5.988 29.5254 7.608L32.4954 7.284C32.6034 7.257 32.6844 7.257 32.7654 7.257C33.1974 7.257 33.4134 7.446 33.4134 7.824C33.4134 8.175 33.1434 8.364 32.6304 8.418L29.5794 8.769C29.6604 10.821 29.7414 12.873 29.7414 13.845C29.7414 14.547 29.5524 14.898 29.1474 14.898C28.6884 14.898 28.5264 14.601 28.5264 13.845C28.5264 11.469 28.3374 5.718 28.2024 4.071ZM35.053 7.311C35.053 3.99 36.781 1.533 39.535 1.398C39.562 1.182 39.67 1.074 39.913 1.074C40.21 1.074 40.48 1.344 40.75 1.911C41.263 2.991 41.722 5.664 41.722 7.176C41.722 10.848 40.75 12.387 38.59 12.387C36.511 12.387 35.053 10.335 35.053 7.311ZM39.481 18.03C40.993 17.706 46.987 17.355 48.283 17.247C48.31 16.977 48.31 16.707 48.31 16.464C48.31 15.843 48.256 15.195 48.013 14.034C46.366 14.034 41.074 14.655 39.13 14.871C39.022 14.898 38.914 14.898 38.833 14.898C38.401 14.898 38.185 14.736 38.185 14.385C38.185 14.061 38.428 13.872 38.887 13.818C40.912 13.521 45.529 13.116 47.851 12.981H48.121C48.742 12.981 49.039 13.143 49.147 13.764C49.363 14.925 49.471 15.951 49.471 17.166C49.471 17.895 49.147 18.3 48.31 18.3C47.23 18.3 41.425 18.894 39.832 19.11C39.913 20.514 39.94 21.432 40.453 23.052H40.642C41.965 23.052 48.121 21.837 49.633 21.405C49.822 21.351 49.957 21.324 50.092 21.324C50.443 21.324 50.605 21.486 50.605 21.783C50.605 22.107 50.416 22.242 49.795 22.377C47.932 22.809 42.262 24.132 40.291 24.132C39.724 24.132 39.508 23.97 39.319 23.403C38.914 22.08 38.617 20.433 38.617 19.272C38.617 18.516 38.644 18.165 39.481 18.03ZM40.507 7.176C40.507 5.961 40.21 3.396 39.778 2.397C37.159 2.478 36.214 4.8 36.214 7.257C36.214 9.633 37.267 11.361 38.617 11.361C39.778 11.361 40.507 10.443 40.507 7.176ZM46.609 2.127C46.582 1.992 46.582 1.884 46.582 1.776C46.582 1.317 46.744 1.074 47.095 1.074C47.392 1.074 47.554 1.263 47.635 1.803C47.851 3.612 48.094 7.77 48.094 9.714C48.094 10.443 47.932 10.848 47.5 10.848C47.041 10.848 46.96 10.578 46.96 9.822C46.96 7.446 46.825 3.774 46.609 2.127ZM52.7412 3.018C54.3612 3.018 58.3572 3.072 59.9772 3.288C60.7332 3.369 61.0032 3.558 61.0032 4.341C60.9222 8.364 60.8682 13.17 60.7332 16.059C60.7062 16.626 60.5172 16.923 60.1662 16.923C59.7882 16.923 59.5992 16.599 59.5992 15.978C59.5992 12.927 59.7342 8.148 59.8152 4.449C57.0342 4.233 55.6572 4.233 52.6872 4.152C52.1742 4.125 51.9042 3.936 51.9042 3.585C51.9042 3.207 52.1742 3.018 52.7412 3.018ZM66.7002 17.166C66.7272 17.328 66.7272 17.463 66.7272 17.571C66.7272 17.895 66.6462 18.165 66.2952 18.192H66.2412C65.9982 18.192 65.7552 18.057 65.6472 17.49C64.9992 13.845 64.1622 4.368 63.9462 1.479V1.263C63.9462 0.642 64.1622 0.344999 64.5672 0.317999H64.6212C64.9722 0.317999 65.1342 0.614999 65.2152 1.371C65.4312 4.098 66.1602 13.737 66.7002 17.166Z" fill="#0291D3"/>
<path d="M0.728 10.659L0.982405 10.818L0.983427 10.8163L0.728 10.659ZM6.29 2.532L6.52896 2.71338L6.89434 2.232H6.29V2.532ZM1.565 3.126L1.62389 3.42043L1.636 3.41748L1.565 3.126ZM1.376 2.073L1.30203 1.78205L1.29135 1.78519L1.376 2.073ZM7.289 2.073L7.57361 1.97813L7.57034 1.96833L7.5664 1.95877L7.289 2.073ZM6.83 3.639L7.07001 3.819L7.07125 3.81732L6.83 3.639ZM5.183 5.826L4.93888 5.65163L4.83157 5.80187L4.91734 5.96536L5.183 5.826ZM7.208 10.146L6.9302 10.2594L6.93226 10.2642L7.208 10.146ZM6.209 10.362L5.9366 10.4877L5.93788 10.4904L6.209 10.362ZM4.481 6.825L4.74823 6.68866L4.51843 6.23825L4.23326 6.65581L4.481 6.825ZM1.7 11.145L1.44539 10.9863L1.4445 10.9878L1.7 11.145ZM10.286 20.19L9.98646 20.1734L9.986 20.1817V20.19H10.286ZM10.502 13.872H10.802V13.572H10.502V13.872ZM5.156 14.358L5.10726 14.0618L5.09717 14.0638L5.156 14.358ZM4.913 13.251L4.96515 13.5465L4.97272 13.545L4.913 13.251ZM11.393 20.136L11.6921 20.1599L11.6925 20.1532L11.393 20.136ZM10.88 1.263L10.5802 1.25147L10.5802 1.25181L10.88 1.263ZM11.96 1.101L12.26 1.10704V1.101H11.96ZM11.771 10.875L11.4712 10.8636L11.4712 10.8643L11.771 10.875ZM10.61 10.902L10.31 10.8902V10.902H10.61ZM0.983427 10.8163C3.05661 7.45078 4.83295 4.94781 6.52896 2.71338L6.05104 2.35062C4.34505 4.59819 2.55739 7.11722 0.472573 10.5017L0.983427 10.8163ZM6.29 2.232C4.53802 2.232 3.62318 2.31587 1.494 2.83452L1.636 3.41748C3.71882 2.91012 4.58598 2.832 6.29 2.832V2.232ZM1.50616 2.83182C1.34914 2.86323 1.28344 2.88 1.214 2.88V3.48C1.36056 3.48 1.51086 3.44277 1.62384 3.42017L1.50616 2.83182ZM1.214 2.88C1.12055 2.88 1.05283 2.86619 1.01616 2.84442C1.00299 2.8366 0.996511 2.82937 0.991506 2.82017C0.985945 2.80995 0.974 2.78184 0.974 2.721H0.374C0.374 3.02043 0.503372 3.23774 0.709838 3.36033C0.889174 3.46681 1.09145 3.48 1.214 3.48V2.88ZM0.974 2.721C0.974 2.6386 1.0286 2.48788 1.46065 2.36081L1.29135 1.78519C0.805401 1.92812 0.374 2.2094 0.374 2.721H0.974ZM1.44992 2.36375C3.01695 1.96535 4.63899 1.779 6.236 1.779V1.179C4.59301 1.179 2.92105 1.37065 1.30208 1.78225L1.44992 2.36375ZM6.236 1.779C6.53447 1.779 6.68537 1.81357 6.77742 1.86535C6.85704 1.91013 6.93007 1.98922 7.0116 2.18722L7.5664 1.95877C7.45893 1.69778 7.31596 1.47987 7.07158 1.3424C6.83963 1.21193 6.55853 1.179 6.236 1.179V1.779ZM7.0044 2.16787C7.0497 2.30378 7.07 2.43367 7.07 2.532H7.67C7.67 2.36033 7.6363 2.16622 7.57361 1.97813L7.0044 2.16787ZM7.07 2.532C7.07 2.64659 7.04015 2.84996 6.58875 3.46068L7.07125 3.81732C7.53785 3.18604 7.67 2.84941 7.67 2.532H7.07ZM6.59 3.459C6.03094 4.20441 5.48077 4.89298 4.93888 5.65163L5.42712 6.00037C5.96523 5.24702 6.49506 4.58559 7.07 3.819L6.59 3.459ZM4.91734 5.96536C5.77714 7.60436 6.39405 8.9457 6.93025 10.2594L7.48575 10.0326C6.94195 8.7003 6.31686 7.34163 5.44866 5.68663L4.91734 5.96536ZM6.93226 10.2642C7.00081 10.4241 7.016 10.5188 7.016 10.605H7.616C7.616 10.4212 7.57719 10.2459 7.48374 10.0278L6.93226 10.2642ZM7.016 10.605C7.016 10.6016 7.01611 10.6102 7.01069 10.6255C7.00568 10.6397 6.99809 10.6536 6.98841 10.6652C6.97941 10.6759 6.96783 10.6856 6.9512 10.6933C6.93463 10.7009 6.90545 10.71 6.857 10.71V11.31C7.1193 11.31 7.3188 11.2047 7.44784 11.0511C7.56695 10.9093 7.616 10.7385 7.616 10.605H7.016ZM6.857 10.71C6.80746 10.71 6.78275 10.7025 6.74151 10.6627C6.68131 10.6045 6.59889 10.4843 6.48012 10.2336L5.93788 10.4904C6.06211 10.7527 6.18219 10.9565 6.32449 11.0941C6.48575 11.25 6.66354 11.31 6.857 11.31V10.71ZM6.48139 10.2363C5.99337 9.17892 5.42457 8.01429 4.74823 6.68866L4.21377 6.96134C4.88743 8.28171 5.45263 9.43908 5.93661 10.4877L6.48139 10.2363ZM4.23326 6.65581C3.4736 7.76817 2.60691 9.12251 1.44539 10.9863L1.95461 11.3037C3.11509 9.44149 3.9764 8.09583 4.72874 6.99419L4.23326 6.65581ZM1.4445 10.9878C1.24719 11.3084 1.08298 11.385 0.971 11.385V11.985C1.39902 11.985 1.72081 11.6836 1.9555 11.3022L1.4445 10.9878ZM0.971 11.385C0.935748 11.385 0.915879 11.3769 0.903389 11.3695C0.889127 11.3611 0.873605 11.347 0.858251 11.3244C0.842573 11.3012 0.830019 11.2733 0.821643 11.2455C0.812744 11.2159 0.812 11.198 0.812 11.199H0.212C0.212 11.3242 0.255703 11.5047 0.3615 11.6609C0.476463 11.8306 0.67675 11.985 0.971 11.985V11.385ZM0.812 11.199C0.812 11.1863 0.817178 11.1463 0.847203 11.0726C0.875876 11.0022 0.920745 10.9166 0.982399 10.818L0.473601 10.5C0.400255 10.6174 0.337124 10.7343 0.291547 10.8462C0.247322 10.9547 0.212 11.0767 0.212 11.199H0.812ZM10.5855 20.2066C10.7205 17.7765 10.802 16.4731 10.802 13.872H10.202C10.202 16.4549 10.1215 17.7435 9.98646 20.1734L10.5855 20.2066ZM10.502 13.572H10.016V14.172H10.502V13.572ZM10.016 13.572C8.58908 13.572 7.24821 13.7097 5.10729 14.062L5.20471 14.654C7.32979 14.3043 8.63492 14.172 10.016 14.172V13.572ZM5.09717 14.0638C4.9941 14.0844 4.91253 14.085 4.805 14.085V14.685C4.91347 14.685 5.0479 14.6856 5.21484 14.6522L5.09717 14.0638ZM4.805 14.085C4.63414 14.085 4.56799 14.0494 4.5474 14.0324C4.53834 14.0249 4.511 14.0012 4.511 13.899H3.911C3.911 14.1208 3.97816 14.3401 4.16485 14.4946C4.34001 14.6396 4.57086 14.685 4.805 14.685V14.085ZM4.511 13.899C4.511 13.801 4.54117 13.7419 4.59231 13.6952C4.65291 13.6398 4.76673 13.5814 4.96514 13.5464L4.86086 12.9556C4.60027 13.0016 4.36309 13.0917 4.18744 13.2523C4.00233 13.4216 3.911 13.646 3.911 13.899H4.511ZM4.97272 13.545C6.68029 13.1981 8.63125 13.011 10.34 13.011V12.411C8.59275 12.411 6.60171 12.6019 4.85328 12.957L4.97272 13.545ZM10.34 13.011C10.7702 13.011 11.0046 13.0795 11.1334 13.1838C11.2456 13.2747 11.336 13.4427 11.336 13.818H11.936C11.936 13.3563 11.8239 12.9708 11.5109 12.7175C11.2144 12.4775 10.8008 12.411 10.34 12.411V13.011ZM11.336 13.818C11.336 16.6692 11.2287 17.7657 11.0935 20.1188L11.6925 20.1532C11.8273 17.8083 11.936 16.6908 11.936 13.818H11.336ZM11.094 20.1121C11.0685 20.4301 11.0069 20.6303 10.9364 20.7427C10.8772 20.8369 10.8199 20.862 10.745 20.862V21.462C11.0481 21.462 11.2878 21.3116 11.4446 21.0616C11.5901 20.8297 11.6635 20.5169 11.692 20.1599L11.094 20.1121ZM10.745 20.862C10.7124 20.862 10.6964 20.8556 10.6892 20.8517C10.6824 20.8481 10.6711 20.8403 10.6569 20.8182C10.6239 20.7666 10.586 20.6514 10.586 20.433H9.986C9.986 20.7006 10.0291 20.9499 10.1513 21.1413C10.2868 21.3533 10.4993 21.462 10.745 21.462V20.862ZM10.586 20.433V20.19H9.986V20.433H10.586ZM11.1798 1.27453C11.1929 0.934421 11.2385 0.723976 11.2968 0.607413C11.3237 0.553592 11.3471 0.532634 11.3592 0.524428C11.3691 0.517799 11.385 0.509999 11.42 0.509999V-0.0900011C11.2795 -0.0900011 11.1436 -0.0539263 11.0234 0.0271944C10.9057 0.106739 10.821 0.217406 10.7602 0.339085C10.643 0.573523 10.5941 0.889578 10.5802 1.25147L11.1798 1.27453ZM11.42 0.509999C11.4461 0.509999 11.4945 0.520446 11.5492 0.605385C11.607 0.695097 11.66 0.85631 11.66 1.101H12.26C12.26 0.778689 12.1915 0.494401 12.0535 0.280364C11.9125 0.0615518 11.6909 -0.0900011 11.42 -0.0900011V0.509999ZM11.6601 1.09496C11.5789 5.12509 11.5521 8.73382 11.4712 10.8636L12.0708 10.8864C12.1519 8.75018 12.1791 5.12291 12.2599 1.10704L11.6601 1.09496ZM11.4712 10.8643C11.4579 11.2357 11.4112 11.4595 11.3446 11.5838C11.3148 11.6393 11.2861 11.6653 11.2618 11.6797C11.2369 11.6943 11.1959 11.709 11.123 11.709V12.309C11.2796 12.309 11.431 12.2764 11.5664 12.1966C11.7024 12.1164 11.8019 12.0007 11.8734 11.8672C12.0093 11.6135 12.0571 11.2703 12.0708 10.8857L11.4712 10.8643ZM11.123 11.709C11.0831 11.709 11.0648 11.7004 11.0554 11.6945C11.0451 11.6879 11.0251 11.6714 11.0021 11.6263C10.9508 11.5256 10.91 11.3343 10.91 11.01H10.31C10.31 11.3607 10.3502 11.6689 10.4676 11.899C10.529 12.0192 10.6153 12.1259 10.7341 12.2012C10.8538 12.2771 10.9874 12.309 11.123 12.309V11.709ZM10.91 11.01V10.902H10.31V11.01H10.91ZM10.9098 10.9138C10.9504 9.88482 10.9842 8.37631 11.0247 6.67689C11.0652 4.97587 11.1124 3.08094 11.1798 1.27419L10.5802 1.25181C10.5126 3.06306 10.4653 4.96163 10.4248 6.66261C10.3843 8.36519 10.3506 9.86718 10.3102 10.8902L10.9098 10.9138ZM21.0744 21.999L20.7875 22.0868L20.8525 22.299H21.0744V21.999ZM31.7124 20.676L31.7845 20.9674L31.7948 20.9645L31.7124 20.676ZM32.0094 21.675L32.0965 21.9621L32.0967 21.962L32.0094 21.675ZM20.0214 22.512L19.7311 22.5875L19.7313 22.5883L20.0214 22.512ZM20.4264 17.22L20.726 17.204L20.7258 17.2013L20.4264 17.22ZM24.9354 14.736L24.904 14.4376L24.9034 14.4377L24.9354 14.736ZM16.3764 15.654V15.954H16.3924L16.4084 15.9523L16.3764 15.654ZM16.2414 14.52L16.2109 14.2215L16.21 14.2216L16.2414 14.52ZM18.8874 14.25L18.9179 14.5485L19.1975 14.5199L19.1872 14.239L18.8874 14.25ZM19.7784 7.635L19.4788 7.64998L19.4789 7.65228L19.7784 7.635ZM20.0214 14.115L19.7216 14.1251L19.7324 14.4475L20.0532 14.4133L20.0214 14.115ZM24.8274 13.602V13.302H24.8114L24.7956 13.3037L24.8274 13.602ZM22.5594 2.37L22.8566 2.32946L22.8213 2.07H22.5594V2.37ZM16.3224 3.099L16.2478 2.80832L16.24 2.81054L16.3224 3.099ZM15.8904 2.046L15.8226 1.7536L15.8131 1.75613L15.8904 2.046ZM23.6664 2.1L23.3692 2.14099L23.3698 2.14519L23.6664 2.1ZM28.2024 4.071H27.9024V4.08327L27.9034 4.09551L28.2024 4.071ZM29.2284 3.747L29.5268 3.71384L29.5251 3.7025L29.2284 3.747ZM29.5254 7.608L29.2258 7.62298L29.2417 7.94073L29.5579 7.90623L29.5254 7.608ZM32.4954 7.284L32.5279 7.58223L32.5483 7.58001L32.5682 7.57504L32.4954 7.284ZM32.6304 8.418L32.599 8.11963L32.5961 8.11997L32.6304 8.418ZM29.5794 8.769L29.5451 8.47097L29.2687 8.50277L29.2796 8.78083L29.5794 8.769ZM21.0744 22.299C24.1521 22.299 29.1443 21.6205 31.7845 20.9672L31.6403 20.3848C29.0425 21.0275 24.0987 21.699 21.0744 21.699V22.299ZM31.7948 20.9645C31.9625 20.9165 32.1235 20.895 32.2254 20.895V20.295C32.0573 20.295 31.8403 20.3275 31.63 20.3875L31.7948 20.9645ZM32.2254 20.895C32.3606 20.895 32.3993 20.9267 32.4058 20.9329C32.4098 20.9368 32.4384 20.9653 32.4384 21.081H33.0384C33.0384 20.8727 32.986 20.6582 32.8213 20.5001C32.659 20.3443 32.4412 20.295 32.2254 20.295V20.895ZM32.4384 21.081C32.4384 21.1401 32.4325 21.1628 32.4297 21.1705C32.4293 21.1717 32.429 21.176 32.414 21.1886C32.3631 21.2313 32.2398 21.2913 31.9221 21.388L32.0967 21.962C32.3999 21.8697 32.6412 21.7812 32.7996 21.6484C32.8891 21.5732 32.9547 21.483 32.9939 21.3745C33.0308 21.2726 33.0384 21.1704 33.0384 21.081H32.4384ZM31.9223 21.3879C30.7458 21.7448 28.7011 22.1068 26.6475 22.38C24.5956 22.6529 22.5661 22.833 21.4254 22.833V23.433C22.6067 23.433 24.6677 23.2486 26.7266 22.9748C28.7837 22.7012 30.8699 22.3342 32.0965 21.9621L31.9223 21.3879ZM21.4254 22.833C21.0076 22.833 20.742 22.804 20.5709 22.736C20.4918 22.7047 20.441 22.6678 20.405 22.627C20.3689 22.586 20.3357 22.5275 20.3115 22.4357L19.7313 22.5883C19.7746 22.753 19.846 22.9003 19.955 23.0239C20.0642 23.1476 20.199 23.234 20.3494 23.2937C20.6373 23.408 21.0062 23.433 21.4254 23.433V22.833ZM20.3117 22.4365C19.9676 21.113 19.6464 18.2765 19.6464 17.247H19.0464C19.0464 18.3235 19.3732 21.211 19.7311 22.5875L20.3117 22.4365ZM19.6464 17.247C19.6464 17.0187 19.69 16.9043 19.7271 16.8535C19.7516 16.8198 19.7882 16.791 19.8864 16.791V16.191C19.6336 16.191 19.4001 16.2837 19.2424 16.4998C19.0973 16.6987 19.0464 16.9623 19.0464 17.247H19.6464ZM19.8864 16.791C19.951 16.791 19.9847 16.8028 20.001 16.8111C20.0156 16.8186 20.0295 16.8299 20.0445 16.8537C20.0826 16.9139 20.114 17.0304 20.127 17.2387L20.7258 17.2013C20.7118 16.9776 20.6757 16.7296 20.5518 16.5333C20.4087 16.3067 20.1777 16.191 19.8864 16.191V16.791ZM20.1268 17.236C20.2077 18.7451 20.3703 20.724 20.7875 22.0868L21.3613 21.9112C20.9684 20.628 20.8071 18.7189 20.726 17.204L20.1268 17.236ZM24.9034 14.4377L16.3444 15.3557L16.4084 15.9523L24.9674 15.0343L24.9034 14.4377ZM16.3764 15.354H16.1604V15.954H16.3764V15.354ZM16.1604 15.354C15.9569 15.354 15.8556 15.3164 15.8116 15.285C15.7867 15.2672 15.7584 15.2387 15.7584 15.141H15.1584C15.1584 15.3943 15.2516 15.6223 15.4629 15.7732C15.6552 15.9106 15.9049 15.954 16.1604 15.954V15.354ZM15.7584 15.141C15.7584 15.0535 15.7868 14.9996 15.8442 14.954C15.9139 14.8985 16.0463 14.8422 16.2728 14.8184L16.21 14.2216C15.9235 14.2518 15.6643 14.3305 15.4708 14.4843C15.265 14.6479 15.1584 14.8775 15.1584 15.141H15.7584ZM16.2719 14.8184L18.9179 14.5485L18.8569 13.9515L16.2109 14.2215L16.2719 14.8184ZM19.1872 14.239C19.1062 12.0247 19.0254 9.3028 19.0254 7.797H18.4254C18.4254 9.3152 18.5066 12.0473 18.5876 14.261L19.1872 14.239ZM19.0254 7.797C19.0254 7.4875 19.0659 7.30349 19.1163 7.20658C19.139 7.16308 19.1588 7.14667 19.1696 7.13987C19.1796 7.1336 19.1985 7.125 19.2384 7.125V6.525C19.1028 6.525 18.9698 6.5569 18.8507 6.63163C18.7325 6.70583 18.6459 6.81092 18.5842 6.92942C18.4659 7.15651 18.4254 7.4585 18.4254 7.797H19.0254ZM19.2384 7.125C19.3013 7.125 19.3361 7.14347 19.3711 7.19534C19.4183 7.2652 19.4665 7.40447 19.4788 7.64998L20.078 7.62002C20.0633 7.32552 20.0035 7.0598 19.8684 6.85966C19.7212 6.64153 19.4995 6.525 19.2384 6.525V7.125ZM19.4789 7.65228C19.5596 9.05155 19.6405 11.7186 19.7216 14.1251L20.3212 14.1049C20.2403 11.7054 20.1592 9.02645 20.0779 7.61772L19.4789 7.65228ZM20.0532 14.4133L24.8592 13.9003L24.7956 13.3037L19.9896 13.8167L20.0532 14.4133ZM24.8274 13.902H25.0164V13.302H24.8274V13.902ZM25.0164 13.902C25.2199 13.902 25.3212 13.9396 25.3652 13.971C25.3901 13.9888 25.4184 14.0173 25.4184 14.115H26.0184C26.0184 13.8617 25.9252 13.6337 25.7139 13.4828C25.5216 13.3454 25.2719 13.302 25.0164 13.302V13.902ZM25.4184 14.115C25.4184 14.2025 25.39 14.2564 25.3326 14.302C25.2628 14.3575 25.1305 14.4138 24.904 14.4376L24.9668 15.0344C25.2533 15.0042 25.5124 14.9255 25.7059 14.7717C25.9118 14.6081 26.0184 14.3785 26.0184 14.115H25.4184ZM23.2644 10.47C23.2644 7.41605 23.1835 4.7264 22.8566 2.32946L22.2621 2.41053C22.5833 4.76559 22.6644 7.42195 22.6644 10.47H23.2644ZM22.5594 2.07C20.814 2.07 18.2767 2.28748 16.2478 2.80842L16.397 3.38957C18.3641 2.88451 20.8488 2.67 22.5594 2.67V2.07ZM16.24 2.81054C16.0723 2.85845 15.9113 2.88 15.8094 2.88V3.48C15.9775 3.48 16.1945 3.44754 16.4048 3.38746L16.24 2.81054ZM15.8094 2.88C15.6742 2.88 15.6355 2.84832 15.629 2.84208C15.625 2.83821 15.5964 2.80972 15.5964 2.694H14.9964C14.9964 2.90228 15.0488 3.11679 15.2135 3.27492C15.3758 3.43068 15.5936 3.48 15.8094 3.48V2.88ZM15.5964 2.694C15.5964 2.59499 15.6232 2.53532 15.6638 2.49046C15.7099 2.43957 15.7989 2.38088 15.9677 2.33587L15.8131 1.75613C15.5769 1.81912 15.3689 1.92243 15.2192 2.08754C15.0641 2.25867 14.9964 2.469 14.9964 2.694H15.5964ZM15.9582 2.33825C17.8032 1.91041 20.5612 1.563 22.1814 1.563V0.963C20.5076 0.963 17.7036 1.31759 15.8226 1.75375L15.9582 2.33825ZM22.1814 1.563H22.3974V0.963H22.1814V1.563ZM22.3974 1.563C22.7455 1.563 22.9632 1.58148 23.1087 1.65537C23.216 1.70985 23.3244 1.81616 23.3692 2.14099L23.9636 2.05901C23.9004 1.60084 23.7118 1.28865 23.3803 1.12037C23.0871 0.971522 22.7243 0.963 22.3974 0.963V1.563ZM23.3698 2.14519C23.7976 4.95267 23.7444 7.46462 23.7444 10.2H24.3444C24.3444 7.48138 24.3992 4.91733 23.963 2.05481L23.3698 2.14519ZM23.7444 10.2C23.7444 10.5223 23.7044 10.7546 23.64 10.8953C23.6093 10.9624 23.5791 10.9952 23.558 11.0109C23.5405 11.0239 23.5179 11.034 23.4774 11.034V11.634C23.6394 11.634 23.789 11.5867 23.9157 11.4926C24.0389 11.4011 24.1252 11.277 24.1856 11.145C24.3034 10.8874 24.3444 10.5527 24.3444 10.2H23.7444ZM23.4774 11.034C23.4064 11.034 23.3781 11.0146 23.3486 10.9638C23.3041 10.8872 23.2644 10.7351 23.2644 10.47H22.6644C22.6644 10.7719 22.7057 11.0518 22.8299 11.2654C22.9692 11.5049 23.1974 11.634 23.4774 11.634V11.034ZM28.5024 4.071V3.828H27.9024V4.071H28.5024ZM28.5024 3.828C28.5024 3.57821 28.5416 3.44074 28.5811 3.37485C28.5982 3.34638 28.6126 3.33582 28.6215 3.33087C28.6308 3.3257 28.6499 3.318 28.6884 3.318V2.718C28.4248 2.718 28.2038 2.83762 28.0667 3.06615C27.9442 3.27026 27.9024 3.53779 27.9024 3.828H28.5024ZM28.6884 3.318C28.7604 3.318 28.7797 3.33424 28.8011 3.36223C28.8413 3.41479 28.8931 3.53436 28.9317 3.7915L29.5251 3.7025C29.4827 3.41964 29.413 3.1747 29.2777 2.99776C29.1236 2.79626 28.9133 2.718 28.6884 2.718V3.318ZM28.9302 3.78013C29.0106 4.50306 29.1451 6.00901 29.2258 7.62298L29.825 7.59302C29.7437 5.96699 29.6082 4.44893 29.5266 3.71387L28.9302 3.78013ZM29.5579 7.90623L32.5279 7.58223L32.4629 6.98577L29.4929 7.30977L29.5579 7.90623ZM32.5682 7.57504C32.6378 7.55763 32.6871 7.557 32.7654 7.557V6.957C32.6817 6.957 32.569 6.95637 32.4226 6.99296L32.5682 7.57504ZM32.7654 7.557C32.9443 7.557 33.0224 7.59699 33.0538 7.62452C33.0777 7.64536 33.1134 7.69243 33.1134 7.824H33.7134C33.7134 7.57757 33.6411 7.34114 33.449 7.17298C33.2644 7.01151 33.0185 6.957 32.7654 6.957V7.557ZM33.1134 7.824C33.1134 7.90895 33.0874 7.95289 33.0353 7.99164C32.9661 8.04306 32.8325 8.09507 32.599 8.11965L32.6618 8.71635C32.9413 8.68693 33.1992 8.61744 33.3933 8.47311C33.6044 8.31611 33.7134 8.09005 33.7134 7.824H33.1134ZM32.5961 8.11997L29.5451 8.47097L29.6137 9.06703L32.6647 8.71603L32.5961 8.11997ZM29.2796 8.78083C29.3608 10.8367 29.4414 12.8806 29.4414 13.845H30.0414C30.0414 12.8654 29.96 10.8053 29.8792 8.75717L29.2796 8.78083ZM29.4414 13.845C29.4414 14.1796 29.3945 14.3806 29.3343 14.4886C29.3069 14.5376 29.2805 14.5609 29.2591 14.5735C29.2377 14.5861 29.2042 14.598 29.1474 14.598V15.198C29.2931 15.198 29.4351 15.166 29.563 15.0908C29.691 15.0157 29.7877 14.9074 29.8583 14.7809C29.9938 14.5379 30.0414 14.2124 30.0414 13.845H29.4414ZM29.1474 14.598C29.0636 14.598 29.0167 14.5843 28.9903 14.5712C28.9679 14.56 28.9464 14.5427 28.9243 14.5045C28.8695 14.41 28.8264 14.2179 28.8264 13.845H28.2264C28.2264 14.2281 28.2643 14.5625 28.4053 14.8055C28.481 14.9361 28.5861 15.0403 28.7231 15.1084C28.8562 15.1746 29.0017 15.198 29.1474 15.198V14.598ZM28.8264 13.845C28.8264 11.4643 28.6373 5.70448 28.5014 4.04649L27.9034 4.09551C28.0375 5.73152 28.2264 11.4737 28.2264 13.845H28.8264ZM39.535 1.398L39.5497 1.69764L39.8014 1.6853L39.8327 1.43521L39.535 1.398ZM40.75 1.911L41.021 1.78228L41.0209 1.78202L40.75 1.911ZM39.481 18.03L39.5288 18.3262L39.5364 18.3249L39.5439 18.3233L39.481 18.03ZM48.283 17.247L48.3079 17.546L48.5567 17.5252L48.5815 17.2769L48.283 17.247ZM48.013 14.034L48.3067 13.9725L48.2567 13.734H48.013V14.034ZM39.13 14.871L39.0969 14.5728L39.0768 14.5751L39.0573 14.58L39.13 14.871ZM38.887 13.818L38.9221 14.1161L38.9305 14.1148L38.887 13.818ZM47.851 12.981V12.681H47.8423L47.8336 12.6815L47.851 12.981ZM49.147 13.764L48.8514 13.8154L48.8521 13.8189L49.147 13.764ZM39.832 19.11L39.7917 18.8127L39.5165 18.85L39.5325 19.1273L39.832 19.11ZM40.453 23.052L40.167 23.1426L40.2333 23.352H40.453V23.052ZM49.633 21.405L49.5506 21.1165L49.633 21.405ZM49.795 22.377L49.7313 22.0838L49.7272 22.0848L49.795 22.377ZM39.319 23.403L39.0321 23.4908L39.0344 23.4979L39.319 23.403ZM39.778 2.397L40.0534 2.27793L39.9725 2.09084L39.7687 2.09714L39.778 2.397ZM46.609 2.127L46.9065 2.08799L46.9052 2.07802L46.9032 2.06816L46.609 2.127ZM47.635 1.803L47.933 1.76741L47.9317 1.7585L47.635 1.803ZM35.353 7.311C35.353 5.69981 35.7724 4.32213 36.5022 3.3385C37.2278 2.36047 38.2672 1.76051 39.5497 1.69764L39.5203 1.09836C38.0489 1.17049 36.8472 1.86652 36.0203 2.98099C35.1976 4.08986 34.753 5.60119 34.753 7.311H35.353ZM39.8327 1.43521C39.8413 1.36607 39.8567 1.36644 39.8423 1.37922C39.8278 1.39212 39.8322 1.374 39.913 1.374V0.773999C39.7508 0.773999 39.5797 0.809878 39.4437 0.930777C39.3078 1.05156 39.2557 1.21393 39.2373 1.36079L39.8327 1.43521ZM39.913 1.374C39.96 1.374 40.0297 1.39221 40.1295 1.49201C40.2334 1.59586 40.3509 1.77056 40.4792 2.03998L41.0209 1.78202C40.8792 1.48444 40.7267 1.24064 40.5538 1.06774C40.3768 0.890792 40.163 0.773999 39.913 0.773999V1.374ZM40.479 2.03972C40.7175 2.54165 40.955 3.4467 41.1331 4.43472C41.3102 5.41665 41.422 6.44394 41.422 7.176H42.022C42.022 6.39606 41.9044 5.33085 41.7236 4.32828C41.544 3.3318 41.2956 2.36035 41.021 1.78228L40.479 2.03972ZM41.422 7.176C41.422 8.99837 41.1784 10.2318 40.7097 11.0026C40.2603 11.7417 39.5843 12.087 38.59 12.087V12.687C39.7557 12.687 40.6457 12.2628 41.2224 11.3144C41.7797 10.3977 42.022 9.02563 42.022 7.176H41.422ZM38.59 12.087C37.6613 12.087 36.8637 11.6329 36.2876 10.8108C35.7072 9.98263 35.353 8.77842 35.353 7.311H34.753C34.753 8.86758 35.1278 10.2014 35.7962 11.1552C36.4689 12.1151 37.4397 12.687 38.59 12.687V12.087ZM39.5439 18.3233C40.2752 18.1666 42.127 17.9991 43.9859 17.8566C45.825 17.7157 47.6619 17.5998 48.3079 17.546L48.2581 16.948C47.6082 17.0022 45.8001 17.1158 43.9401 17.2584C42.1 17.3994 40.1988 17.5694 39.4182 17.7367L39.5439 18.3233ZM48.5815 17.2769C48.6102 16.9896 48.61 16.7049 48.61 16.464H48.01C48.01 16.7091 48.0098 16.9644 47.9845 17.2171L48.5815 17.2769ZM48.61 16.464C48.61 15.8184 48.553 15.1495 48.3067 13.9725L47.7194 14.0955C47.959 15.2405 48.01 15.8676 48.01 16.464H48.61ZM48.013 13.734C46.3441 13.734 41.0251 14.3586 39.0969 14.5728L39.1631 15.1692C41.1229 14.9514 46.3879 14.334 48.013 14.334V13.734ZM39.0573 14.58C38.9899 14.5968 38.9171 14.598 38.833 14.598V15.198C38.9109 15.198 39.0541 15.1992 39.2028 15.162L39.0573 14.58ZM38.833 14.598C38.6453 14.598 38.563 14.5611 38.5317 14.5367C38.5155 14.524 38.485 14.4953 38.485 14.385H37.885C37.885 14.6257 37.9625 14.8535 38.1623 15.0095C38.3471 15.1539 38.5887 15.198 38.833 15.198V14.598ZM38.485 14.385C38.485 14.3092 38.5081 14.2691 38.5513 14.2345C38.6079 14.1893 38.7203 14.1397 38.9221 14.1159L38.852 13.5201C38.5947 13.5503 38.3562 13.6222 38.1765 13.766C37.9834 13.9204 37.885 14.1368 37.885 14.385H38.485ZM38.9305 14.1148C40.9432 13.8196 45.5504 13.4153 47.8684 13.2805L47.8336 12.6815C45.5076 12.8167 40.8809 13.2224 38.8435 13.5212L38.9305 14.1148ZM47.851 13.281H48.121V12.681H47.851V13.281ZM48.121 13.281C48.4176 13.281 48.5664 13.3226 48.652 13.3837C48.7261 13.4367 48.8039 13.542 48.8515 13.8154L49.4426 13.7126C49.3821 13.365 49.2574 13.0788 49.0008 12.8955C48.7556 12.7204 48.4454 12.681 48.121 12.681V13.281ZM48.8521 13.8189C49.0651 14.9639 49.171 15.9715 49.171 17.166H49.771C49.771 15.9305 49.6609 14.8861 49.442 13.7091L48.8521 13.8189ZM49.171 17.166C49.171 17.4926 49.0977 17.6849 48.9885 17.7981C48.8812 17.9092 48.685 18 48.31 18V18.6C48.772 18.6 49.1563 18.4883 49.4203 18.2147C49.6823 17.9431 49.771 17.5684 49.771 17.166H49.171ZM48.31 18C47.7515 18 46.0118 18.1507 44.234 18.3254C42.4484 18.501 40.5941 18.7039 39.7917 18.8127L39.8723 19.4073C40.6629 19.3001 42.5076 19.098 44.2927 18.9226C46.0858 18.7463 47.7886 18.6 48.31 18.6V18ZM39.5325 19.1273C39.6136 20.5323 39.6416 21.4835 40.167 23.1426L40.739 22.9614C40.2384 21.3805 40.2125 20.4957 40.1315 19.0927L39.5325 19.1273ZM40.453 23.352H40.642V22.752H40.453V23.352ZM40.642 23.352C40.9994 23.352 41.6547 23.272 42.4379 23.1519C43.2292 23.0306 44.1736 22.8645 45.1223 22.6853C47.015 22.3277 48.9446 21.9137 49.7154 21.6935L49.5506 21.1165C48.8095 21.3283 46.9051 21.7378 45.0109 22.0957C44.0663 22.2742 43.1291 22.4389 42.3469 22.5589C41.5565 22.6801 40.9461 22.752 40.642 22.752V23.352ZM49.7154 21.6935C49.8957 21.6419 49.9989 21.624 50.092 21.624V21.024C49.9151 21.024 49.7483 21.0601 49.5506 21.1165L49.7154 21.6935ZM50.092 21.624C50.2269 21.624 50.2691 21.6556 50.277 21.6629C50.2802 21.6658 50.305 21.6878 50.305 21.783H50.905C50.905 21.5812 50.8488 21.3737 50.6833 21.2213C50.5224 21.0734 50.3081 21.024 50.092 21.024V21.624ZM50.305 21.783C50.305 21.8356 50.2972 21.8593 50.2927 21.8694C50.2894 21.8766 50.2825 21.8893 50.2561 21.9085C50.1875 21.9585 50.0423 22.0162 49.7313 22.0838L49.8587 22.6702C50.1687 22.6028 50.4285 22.5255 50.6097 22.3932C50.7082 22.3214 50.7873 22.2311 50.8389 22.1177C50.8892 22.007 50.905 21.8924 50.905 21.783H50.305ZM49.7272 22.0848C48.7953 22.3009 46.916 22.7387 45.0239 23.1225C43.1193 23.5088 41.2405 23.832 40.291 23.832V24.432C41.3125 24.432 43.2542 24.0937 45.1432 23.7105C47.0446 23.3248 48.9317 22.8851 49.8628 22.6692L49.7272 22.0848ZM40.291 23.832C40.0282 23.832 39.9131 23.7925 39.8433 23.7401C39.7703 23.6854 39.6931 23.5767 39.6036 23.3081L39.0344 23.4979C39.1339 23.7963 39.2592 24.0521 39.4833 24.2201C39.7105 24.3905 39.9868 24.432 40.291 24.432V23.832ZM39.6059 23.3152C39.2067 22.0112 38.917 20.3948 38.917 19.272H38.317C38.317 20.4712 38.6213 22.1488 39.0322 23.4908L39.6059 23.3152ZM38.917 19.272C38.917 19.081 38.919 18.9334 38.9325 18.8109C38.9459 18.6896 38.9687 18.6151 38.997 18.5646C39.0404 18.487 39.14 18.3889 39.5288 18.3262L39.4332 17.7338C38.985 17.8061 38.6527 17.951 38.4733 18.2717C38.3902 18.4203 38.3539 18.5837 38.3361 18.7451C38.3184 18.9053 38.317 19.085 38.317 19.272H38.917ZM40.807 7.176C40.807 6.5504 40.7311 5.59082 40.6016 4.66399C40.4734 3.74598 40.2871 2.81852 40.0534 2.27793L39.5027 2.51607C39.7009 2.97448 39.8792 3.82902 40.0074 4.74701C40.1344 5.65618 40.207 6.5866 40.207 7.176H40.807ZM39.7687 2.09714C38.3553 2.14086 37.3744 2.79762 36.7598 3.77648C36.1552 4.73949 35.914 5.99702 35.914 7.257H36.514C36.514 6.05998 36.7453 4.92801 37.268 4.09551C37.7807 3.27888 38.5817 2.73414 39.7873 2.69686L39.7687 2.09714ZM35.914 7.257C35.914 8.48546 36.1856 9.56736 36.6512 10.3529C37.1155 11.1365 37.7995 11.661 38.617 11.661V11.061C38.0846 11.061 37.567 10.7215 37.1674 10.0471C36.7689 9.37464 36.514 8.40454 36.514 7.257H35.914ZM38.617 11.661C38.9472 11.661 39.2665 11.5954 39.555 11.4247C39.8441 11.2535 40.0799 10.9899 40.2643 10.6306C40.6259 9.92597 40.807 8.81889 40.807 7.176H40.207C40.207 8.80011 40.0236 9.78553 39.7305 10.3566C39.5875 10.6352 39.4234 10.8053 39.2493 10.9084C39.0746 11.0118 38.8673 11.061 38.617 11.061V11.661ZM46.9032 2.06816C46.8826 1.9651 46.882 1.88353 46.882 1.776H46.282C46.282 1.88447 46.2815 2.0189 46.3148 2.18583L46.9032 2.06816ZM46.882 1.776C46.882 1.57247 46.9196 1.47118 46.951 1.42725C46.9688 1.4023 46.9973 1.374 47.095 1.374V0.773999C46.8417 0.773999 46.6137 0.867201 46.4628 1.0785C46.3254 1.27082 46.282 1.52052 46.282 1.776H46.882ZM47.095 1.374C47.1671 1.374 47.1863 1.39024 47.2077 1.41823C47.2479 1.47079 47.2998 1.59036 47.3383 1.8475L47.9317 1.7585C47.8893 1.47564 47.8196 1.23071 47.6843 1.05376C47.5302 0.85226 47.32 0.773999 47.095 0.773999V1.374ZM47.3371 1.83857C47.5517 3.63524 47.794 7.78135 47.794 9.714H48.394C48.394 7.75865 48.1504 3.58875 47.9329 1.76743L47.3371 1.83857ZM47.794 9.714C47.794 10.0675 47.7528 10.2936 47.6898 10.4221C47.6608 10.4809 47.6327 10.5081 47.6116 10.5218C47.5916 10.5348 47.5593 10.548 47.5 10.548V11.148C47.6567 11.148 47.8067 11.1106 47.9386 11.0249C48.0693 10.9399 48.1627 10.8202 48.2283 10.6866C48.3542 10.4304 48.394 10.0895 48.394 9.714H47.794ZM47.5 10.548C47.4113 10.548 47.3732 10.5344 47.3593 10.5272C47.3528 10.5239 47.3428 10.5189 47.3284 10.4889C47.3104 10.4513 47.2911 10.3845 47.278 10.2678C47.2651 10.153 47.26 10.0076 47.26 9.822H46.66C46.66 10.0144 46.6651 10.1863 46.6817 10.3347C46.6982 10.4812 46.7277 10.6237 46.7873 10.7481C46.8506 10.8801 46.947 10.9899 47.0847 11.0608C47.2151 11.1279 47.3592 11.148 47.5 11.148V10.548ZM47.26 9.822C47.26 7.44351 47.1251 3.75532 46.9065 2.08799L46.3116 2.16601C46.5249 3.79268 46.66 7.44849 46.66 9.822H47.26ZM59.9772 3.288L59.9375 3.58547L59.9452 3.58629L59.9772 3.288ZM61.0032 4.341L61.3032 4.34704V4.341H61.0032ZM60.7332 16.059L61.0328 16.0733L61.0329 16.073L60.7332 16.059ZM59.8152 4.449L60.1151 4.45557L60.1213 4.17187L59.8384 4.1499L59.8152 4.449ZM52.6872 4.152L52.6714 4.45168L52.679 4.45189L52.6872 4.152ZM66.7002 17.166L66.4038 17.2127L66.4043 17.2153L66.7002 17.166ZM66.2952 18.192V18.492H66.3067L66.3182 18.4911L66.2952 18.192ZM65.6472 17.49L65.3518 17.5425L65.3525 17.5461L65.6472 17.49ZM63.9462 1.479H63.6462V1.4902L63.647 1.50137L63.9462 1.479ZM64.5672 0.317999V0.0179992H64.5572L64.5472 0.0186635L64.5672 0.317999ZM65.2152 1.371L65.5144 1.3473L65.5135 1.33904L65.2152 1.371ZM52.7412 3.318C54.3672 3.318 58.3414 3.37254 59.9375 3.58537L60.0168 2.99063C58.373 2.77145 54.3552 2.718 52.7412 2.718V3.318ZM59.9452 3.58629C60.3228 3.62674 60.4842 3.68936 60.5661 3.76785C60.636 3.83486 60.7032 3.97005 60.7032 4.341H61.3032C61.3032 3.92895 61.2353 3.57814 60.9813 3.33465C60.7391 3.10264 60.3876 3.03026 60.0091 2.98971L59.9452 3.58629ZM60.7032 4.33496C60.6221 8.3637 60.5683 13.1613 60.4335 16.045L61.0329 16.073C61.1681 13.1787 61.2222 8.3643 61.3031 4.34704L60.7032 4.33496ZM60.4335 16.0447C60.4211 16.3059 60.372 16.4597 60.3198 16.5399C60.2803 16.6005 60.2397 16.623 60.1662 16.623V17.223C60.4437 17.223 60.673 17.097 60.8226 16.8673C60.9593 16.6573 61.0183 16.3791 61.0328 16.0733L60.4335 16.0447ZM60.1662 16.623C60.0819 16.623 60.0386 16.5968 59.9987 16.5298C59.9449 16.4396 59.8992 16.2674 59.8992 15.978H59.2992C59.2992 16.3096 59.348 16.6099 59.4832 16.8369C59.6323 17.0872 59.8724 17.223 60.1662 17.223V16.623ZM59.8992 15.978C59.8992 12.9314 60.034 8.15865 60.1151 4.45557L59.5153 4.44243C59.4343 8.13735 59.2992 12.9226 59.2992 15.978H59.8992ZM59.8384 4.1499C57.0479 3.93316 55.661 3.93299 52.6954 3.85211L52.679 4.45189C55.6534 4.53301 57.0205 4.53284 59.792 4.7481L59.8384 4.1499ZM52.7029 3.85241C52.4725 3.84029 52.3431 3.79285 52.2783 3.7463C52.2307 3.71214 52.2042 3.67091 52.2042 3.585H51.6042C51.6042 3.85009 51.7127 4.07886 51.9283 4.2337C52.1268 4.37615 52.3888 4.43671 52.6714 4.45158L52.7029 3.85241ZM52.2042 3.585C52.2042 3.47802 52.2359 3.43709 52.2792 3.40749C52.3441 3.36317 52.4811 3.318 52.7412 3.318V2.718C52.4342 2.718 52.1527 2.76732 51.9409 2.91201C51.7075 3.07141 51.6042 3.31398 51.6042 3.585H52.2042ZM66.4043 17.2153C66.4268 17.3507 66.4272 17.4639 66.4272 17.571H67.0272C67.0272 17.4621 67.0275 17.3053 66.9961 17.1167L66.4043 17.2153ZM66.4272 17.571C66.4272 17.7184 66.4067 17.8017 66.3828 17.8432C66.3737 17.8591 66.3653 17.8665 66.3564 17.8719C66.3464 17.8779 66.3224 17.889 66.2722 17.8929L66.3182 18.4911C66.5823 18.4708 66.7843 18.3483 66.9028 18.1426C67.0071 17.9613 67.0272 17.7476 67.0272 17.571H66.4272ZM66.2952 17.892H66.2412V18.492H66.2952V17.892ZM66.2412 17.892C66.1806 17.892 66.1421 17.8779 66.1057 17.8415C66.0602 17.796 65.99 17.6864 65.9419 17.4339L65.3525 17.5461C65.4124 17.8606 65.5177 18.102 65.6814 18.2658C65.8542 18.4386 66.0588 18.492 66.2412 18.492V17.892ZM65.9426 17.4375C65.2977 13.8101 64.4616 4.34859 64.2453 1.45663L63.647 1.50137C63.8628 4.3874 64.7007 13.8799 65.3518 17.5425L65.9426 17.4375ZM64.2462 1.479V1.263H63.6462V1.479H64.2462ZM64.2462 1.263C64.2462 0.979374 64.2969 0.819504 64.3536 0.735405C64.399 0.667977 64.4632 0.625599 64.5871 0.617335L64.5472 0.0186635C64.2662 0.0373993 64.0198 0.157021 63.856 0.400094C63.7035 0.626495 63.6462 0.925626 63.6462 1.263H64.2462ZM64.5672 0.617999H64.6212V0.0179992H64.5672V0.617999ZM64.6212 0.617999C64.6652 0.617999 64.6852 0.626771 64.6958 0.633175C64.7073 0.640102 64.7297 0.657635 64.7577 0.70758C64.8203 0.819404 64.8769 1.02979 64.9169 1.40296L65.5135 1.33904C65.4725 0.956209 65.4076 0.640093 65.2812 0.414418C65.2147 0.295612 65.1256 0.191646 65.0055 0.119261C64.8845 0.0463525 64.7527 0.0179992 64.6212 0.0179992V0.617999ZM64.9161 1.39469C65.1314 4.11219 65.8615 13.7687 66.4038 17.2127L66.9965 17.1193C66.4589 13.7053 65.731 4.0838 65.5142 1.34731L64.9161 1.39469Z" fill="#0291D3" mask="url(#path-1-outside-1_414_589)"/>
</svg>
