<svg width="23" height="22" viewBox="0 0 23 22" fill="none" xmlns="http://www.w3.org/2000/svg">
<mask id="mask0_414_525" style="mask-type:luminance" maskUnits="userSpaceOnUse" x="11" y="9" width="12" height="11">
<path d="M22.5001 11.2504C22.5001 10.4698 22.4291 9.7198 22.2957 9.00031H11.7251V13.2549H17.7651C17.5046 14.6304 16.7144 15.7945 15.5253 16.5751V19.3346H19.1523C21.2749 17.4192 22.4989 14.5999 22.4989 11.2492L22.5001 11.2504Z" fill="white"/>
</mask>
<g mask="url(#mask0_414_525)">
<path d="M28.7357 2.88895H5.48926V25.446H28.7357V2.88895Z" fill="#3E82F1"/>
</g>
<mask id="mask1_414_525" style="mask-type:luminance" maskUnits="userSpaceOnUse" x="1" y="13" width="19" height="9">
<path d="M11.725 22C14.755 22 17.2964 21.0154 19.1535 19.3346L15.5265 16.5751C14.5219 17.2347 13.2356 17.6256 11.7262 17.6256C8.80347 17.6256 6.32814 15.6907 5.4457 13.09H1.69531V15.9399C3.54246 19.5349 7.33771 22 11.725 22Z" fill="white"/>
</mask>
<g mask="url(#mask1_414_525)">
<path d="M25.3893 6.97867H-4.54028V28.1114H25.3893V6.97867Z" fill="#32A753"/>
</g>
<mask id="mask2_414_525" style="mask-type:luminance" maskUnits="userSpaceOnUse" x="0" y="6" width="6" height="10">
<path d="M5.44442 13.0901C5.22007 12.4304 5.09294 11.7256 5.09294 11C5.09294 10.2744 5.22007 9.56956 5.44442 8.90993V6.06007H1.69404C0.933743 7.54546 0.5 9.22509 0.5 11C0.5 12.7749 0.933743 14.4545 1.69404 15.9399L5.44442 13.0901Z" fill="white"/>
</mask>
<g mask="url(#mask2_414_525)">
<path d="M11.6802 -0.0513229H-5.73438V22.0513H11.6802V-0.0513229Z" fill="#F9BB00"/>
</g>
<mask id="mask3_414_525" style="mask-type:luminance" maskUnits="userSpaceOnUse" x="1" y="0" width="19" height="9">
<path d="M11.725 4.37432C13.3727 4.37432 14.8522 4.9289 16.0151 6.01974L19.2345 2.86449C17.2901 1.08959 14.75 -3.05176e-05 11.725 -3.05176e-05C7.33771 -3.05176e-05 3.54121 2.46504 1.69531 6.06005L5.4457 8.90991C6.32814 6.31046 8.80222 4.37432 11.7262 4.37432H11.725Z" fill="white"/>
</mask>
<g mask="url(#mask3_414_525)">
<path d="M25.4703 -6.11141H-4.54028V15.0213H25.4703V-6.11141Z" fill="#E74133"/>
</g>
</svg>
