<svg width="24" height="22" viewBox="0 0 24 22" fill="none" xmlns="http://www.w3.org/2000/svg">
<path d="M12 0C5.38573 0 0.0268555 4.23628 0.0268555 9.46622C0.0268555 12.8681 2.2986 15.8529 5.7081 17.5216C5.45779 18.4546 4.80168 20.9084 4.66894 21.4317C4.50586 22.084 4.90787 22.0727 5.16956 21.8982C5.37436 21.7617 8.45012 19.6682 9.77751 18.7656C10.4981 18.8718 11.2414 18.9286 12 18.9286C18.6142 18.9286 23.973 14.6924 23.973 9.46243C23.973 4.23249 18.6142 0 12 0Z" fill="#371C1D"/>
<path d="M3.6488 7.72164H4.88138C4.88138 7.72164 4.88896 11.1084 4.88138 11.8972C4.88138 12.4737 6.16326 12.4813 6.16326 11.9048V7.76715C6.16326 7.76715 6.58044 7.76715 7.39584 7.76715C8.16194 7.76715 8.16194 6.56112 7.39584 6.56112C6.53114 6.56112 3.6488 6.53836 3.6488 6.53836C2.92442 6.53836 2.92821 7.72164 3.6488 7.72164Z" fill="#F8E049"/>
<mask id="mask0_414_548" style="mask-type:luminance" maskUnits="userSpaceOnUse" x="3" y="6" width="5" height="7">
<path d="M3.6488 7.72164H4.88138C4.88138 7.72164 4.88896 11.1084 4.88138 11.8972C4.88138 12.4737 6.16326 12.4813 6.16326 11.9048V7.76715C6.16326 7.76715 6.58044 7.76715 7.39584 7.76715C8.16194 7.76715 8.16194 6.56112 7.39584 6.56112C6.53114 6.56112 3.6488 6.53836 3.6488 6.53836C2.92442 6.53836 2.92821 7.72164 3.6488 7.72164Z" fill="white"/>
</mask>
<g mask="url(#mask0_414_548)">
<path d="M8.15817 6.54216H2.92065V12.4813H8.15817V6.54216Z" fill="#F8E049"/>
</g>
<path d="M9.54623 7.94161L10.2327 10.092H8.80288L9.54623 7.94161ZM8.77634 6.93658C8.47293 7.60407 7.37688 10.7595 7.0128 11.5938C6.75111 12.1969 7.88509 12.6899 8.14677 12.0869L8.39329 11.226H10.6499C10.6499 11.226 10.574 11.2601 10.8698 12.0527C11.1126 12.6937 12.2845 12.25 12.0417 11.609C11.6966 10.695 10.4982 7.40307 10.2782 6.93658C10.1758 6.72041 9.8155 6.56491 9.46658 6.56491C9.17835 6.56491 8.89391 6.6711 8.77634 6.93658Z" fill="#F8E049"/>
<mask id="mask1_414_548" style="mask-type:luminance" maskUnits="userSpaceOnUse" x="6" y="6" width="7" height="7">
<path d="M9.54623 7.94161L10.2327 10.092H8.80288L9.54623 7.94161ZM8.77634 6.93658C8.47293 7.60407 7.37688 10.7595 7.0128 11.5938C6.75111 12.1969 7.88509 12.6899 8.14677 12.0869L8.39329 11.226H10.6499C10.6499 11.226 10.574 11.2601 10.8698 12.0527C11.1126 12.6937 12.2845 12.25 12.0417 11.609C11.6966 10.695 10.4982 7.40307 10.2782 6.93658C10.1758 6.72041 9.8155 6.56491 9.46658 6.56491C9.17835 6.56491 8.89391 6.6711 8.77634 6.93658Z" fill="white"/>
</mask>
<g mask="url(#mask1_414_548)">
<path d="M12.2843 6.56491H6.75098V12.6899H12.2843V6.56491Z" fill="#F8E049"/>
</g>
<path d="M12.4741 7.13379C12.4741 8.20708 12.4817 11.6621 12.4817 11.6621C12.4817 11.6621 12.3831 12.3485 12.9709 12.3485C13.5588 12.3485 14.8672 12.341 15.4437 12.341C16.0202 12.341 16.0202 11.1084 15.4437 11.1084C14.8672 11.1084 13.8091 11.1008 13.8091 11.1008C13.8091 11.1008 13.8129 7.90367 13.8091 7.12999C13.8091 6.75453 13.4754 6.5687 13.1416 6.5687C12.8079 6.5687 12.4741 6.75832 12.4741 7.13379Z" fill="#F8E049"/>
<mask id="mask2_414_548" style="mask-type:luminance" maskUnits="userSpaceOnUse" x="12" y="6" width="4" height="7">
<path d="M12.4741 7.13379C12.4741 8.20708 12.4817 11.6621 12.4817 11.6621C12.4817 11.6621 12.3831 12.3485 12.9709 12.3485C13.5588 12.3485 14.8672 12.341 15.4437 12.341C16.0202 12.341 16.0202 11.1084 15.4437 11.1084C14.8672 11.1084 13.8091 11.1008 13.8091 11.1008C13.8091 11.1008 13.8129 7.90367 13.8091 7.12999C13.8091 6.75453 13.4754 6.5687 13.1416 6.5687C12.8079 6.5687 12.4741 6.75832 12.4741 7.13379Z" fill="white"/>
</mask>
<g mask="url(#mask2_414_548)">
<path d="M16.0239 6.56871H12.3831V12.3486H16.0239V6.56871Z" fill="#F8E049"/>
</g>
<path d="M16.1792 6.96313C16.1906 7.4334 16.1641 11.6849 16.1641 11.9996C16.1641 12.4965 17.4308 12.4965 17.4308 11.9996C17.4308 11.4232 17.4308 10.3271 17.4308 10.3271L17.8024 10.0275L19.4257 12.2462C19.7556 12.6785 20.7872 11.8972 20.461 11.4649L18.7354 9.19315C18.7354 9.19315 19.9073 7.92644 20.37 7.46754C20.6393 7.19827 19.8049 6.36011 19.5356 6.62938C19.274 6.88728 17.4384 8.72287 17.4384 8.72287C17.4384 8.72287 17.4535 7.56994 17.4384 6.93279C17.4308 6.69006 17.135 6.57249 16.8316 6.57249C16.5054 6.57249 16.1754 6.70523 16.1792 6.96692" fill="#F8E049"/>
<mask id="mask3_414_548" style="mask-type:luminance" maskUnits="userSpaceOnUse" x="16" y="6" width="5" height="7">
<path d="M16.1792 6.96313C16.1906 7.4334 16.1641 11.6849 16.1641 11.9996C16.1641 12.4965 17.4308 12.4965 17.4308 11.9996C17.4308 11.4232 17.4308 10.3271 17.4308 10.3271L17.8024 10.0275L19.4257 12.2462C19.7556 12.6785 20.7872 11.8972 20.461 11.4649L18.7354 9.19315C18.7354 9.19315 19.9073 7.92644 20.37 7.46754C20.6393 7.19827 19.8049 6.36011 19.5356 6.62938C19.274 6.88728 17.4384 8.72287 17.4384 8.72287C17.4384 8.72287 17.4535 7.56994 17.4384 6.93279C17.4308 6.69006 17.135 6.57249 16.8316 6.57249C16.5054 6.57249 16.1754 6.70523 16.1792 6.96692" fill="white"/>
</mask>
<g mask="url(#mask3_414_548)">
<path d="M20.7872 6.35629H16.1641V12.6785H20.7872V6.35629Z" fill="#F8E049"/>
</g>
</svg>
